<?xml version="1.0" standalone="no"?>
<!DOCTYPE svg PUBLIC "-//W3C//DTD SVG 20010904//EN"
 "http://www.w3.org/TR/2001/REC-SVG-20010904/DTD/svg10.dtd">
<svg version="1.0" xmlns="http://www.w3.org/2000/svg"
 width="100.000000pt" height="100.000000pt" viewBox="0 0 100.000000 100.000000"
 preserveAspectRatio="xMidYMid meet">
<metadata>
Created by potrace 1.14, written by Peter Selinger 2001-2017
</metadata>
<g transform="translate(0.000000,100.000000) scale(0.100000,-0.100000)"
fill="#000000" stroke="none">
<path d="M0 500 l0 -500 500 0 500 0 0 500 0 500 -180 0 c-160 0 -180 -2 -190
-17 -9 -14 -10 -14 -7 -2 9 27 -47 22 -74 -7 -12 -13 -27 -24 -33 -24 -6 0 3
11 19 25 17 13 25 24 18 25 -6 0 -15 -4 -18 -10 -3 -5 -11 -10 -16 -10 -6 0
-7 5 -4 10 4 7 -83 10 -254 10 l-261 0 0 -500z m658 420 c-2 -7 -10 1 -17 16
-12 27 -11 28 4 12 10 -9 16 -21 13 -28z m-163 20 c-3 -5 -12 -10 -18 -10 -7
0 -6 4 3 10 19 12 23 12 15 0z m130 0 c3 -5 1 -10 -4 -10 -6 0 -11 5 -11 10 0
6 2 10 4 10 3 0 8 -4 11 -10z m35 -71 c0 -3 -7 -6 -15 -6 -15 0 -20 18 -8 30
6 7 22 -10 23 -24z m-254 -14 c-1 -30 -3 -33 -13 -19 -9 12 -9 21 0 35 6 10
12 19 13 19 0 0 0 -16 0 -35z m227 -18 c3 -8 -1 -14 -9 -14 -15 0 -18 9 -7 20
9 9 10 9 16 -6z m-206 -89 c-8 -5 -4 -8 9 -8 11 0 26 -6 33 -12 11 -11 12 -10
6 2 -5 8 -17 21 -28 29 -10 7 -16 19 -13 26 3 8 0 16 -7 19 -24 10 121 -4 148
-14 20 -7 31 -7 41 1 9 8 18 8 27 2 6 -6 37 -13 69 -16 31 -3 67 -11 80 -18
12 -7 27 -13 32 -14 5 0 11 -7 13 -15 4 -13 3 -13 -7 0 -8 12 -9 9 -4 -12 3
-14 1 -35 -4 -45 -16 -28 -102 -72 -163 -82 -37 -6 -44 -9 -23 -10 49 -2 131
27 168 59 l34 30 5 -37 c2 -21 0 -44 -6 -51 -7 -8 -7 -20 0 -35 8 -17 7 -32
-3 -55 -15 -37 -25 -42 -17 -9 3 12 2 18 -3 14 -4 -4 -10 -25 -11 -45 -5 -58
-6 -62 -16 -62 -5 0 -6 7 -3 15 17 42 16 47 -6 20 -68 -88 -145 -127 -252
-127 -103 0 -150 23 -220 108 -31 37 -56 73 -56 78 0 6 -5 4 -10 -4 -8 -12
-10 -11 -8 5 2 36 -2 56 -11 50 -5 -3 -13 0 -17 6 -4 8 -3 9 4 5 7 -4 12 -1
12 8 0 8 -5 16 -11 18 -6 2 -8 14 -4 31 4 15 12 26 19 23 42 -18 148 -47 158
-43 7 2 -13 10 -44 17 -108 25 -147 70 -98 115 11 10 17 22 13 28 -3 5 -1 7 5
4 14 -10 42 2 42 18 0 15 48 26 79 18 18 -4 20 -2 14 13 -4 12 4 7 19 -11 18
-21 23 -32 15 -37z m-270 -34 c-3 -3 -12 -4 -19 -1 -8 3 -5 6 6 6 11 1 17 -2
13 -5z m8 -28 c44 -19 45 -36 3 -36 -69 0 -91 -71 -41 -131 15 -18 56 -45 90
-61 109 -49 69 -62 -65 -20 -62 19 -96 54 -112 113 -15 54 4 118 40 136 32 16
43 16 85 -1z m-40 -264 c-3 -3 -11 0 -18 7 -9 10 -8 11 6 5 10 -3 15 -9 12
-12z m142 -28 c-3 -3 -12 -4 -19 -1 -8 3 -5 6 6 6 11 1 17 -2 13 -5z m38 -14
c3 -5 2 -10 -4 -10 -5 0 -13 5 -16 10 -3 6 -2 10 4 10 5 0 13 -4 16 -10z m515
-21 c89 -53 102 -94 48 -146 -70 -66 -195 -103 -349 -103 -137 0 -317 48 -339
91 -13 24 -13 72 1 86 6 6 12 19 13 29 5 30 59 56 100 48 46 -8 86 -39 86 -67
0 -38 15 -48 91 -58 131 -19 219 6 219 60 0 23 58 81 80 81 8 0 31 -10 50 -21z
m-306 -79 c23 0 68 7 99 15 32 8 60 15 62 15 12 0 3 -22 -15 -40 -18 -18 -33
-20 -128 -20 -115 0 -151 11 -139 44 6 15 10 15 43 1 20 -8 55 -15 78 -15z
m-340 -96 c3 -8 2 -12 -4 -9 -6 3 -10 10 -10 16 0 14 7 11 14 -7z m60 -46 c-3
-4 -9 -8 -15 -8 -5 0 -9 4 -9 8 0 5 7 9 15 9 8 0 12 -4 9 -9z m116 -23 c95
-22 276 -20 370 5 41 10 76 18 77 16 2 -2 -11 -10 -29 -19 -59 -28 -164 -40
-272 -32 -56 4 -118 8 -138 8 -25 1 -33 4 -25 10 7 5 1 6 -16 2 -20 -4 -27 -2
-22 6 5 8 1 9 -15 4 -17 -5 -21 -4 -15 6 6 9 3 11 -9 6 -10 -4 -15 -3 -11 4 4
5 14 8 23 5 10 -3 46 -12 82 -21z"/>
<path d="M570 745 c0 -21 -5 -25 -32 -26 -18 -1 -36 -1 -39 -1 -8 1 -116 -33
-157 -50 -31 -12 -35 -11 -48 6 -13 18 -14 18 -14 2 0 -35 83 -59 217 -64 133
-5 198 6 245 39 39 28 36 55 -10 78 -28 15 -131 41 -159 41 -2 0 -3 -11 -3
-25z m153 -21 c21 -10 37 -24 37 -34 0 -27 -11 -30 -39 -10 -14 11 -50 24 -80
30 -62 12 -66 14 -58 33 7 18 79 7 140 -19z"/>
<path d="M503 753 c9 -2 23 -2 30 0 6 3 -1 5 -18 5 -16 0 -22 -2 -12 -5z"/>
<path d="M448 573 c29 -2 74 -2 100 0 26 2 2 3 -53 3 -55 0 -76 -1 -47 -3z"/>
<path d="M821 524 c0 -11 3 -14 6 -6 3 7 2 16 -1 19 -3 4 -6 -2 -5 -13z"/>
<path d="M214 334 c-18 -14 -18 -15 4 -4 12 6 22 13 22 15 0 8 -5 6 -26 -11z"/>
</g>
</svg>
